<svg xmlns="http://www.w3.org/2000/svg" viewBox="0 0 1200 600" fill="none">
  <g>
    <!-- Grid lines / meridians -->
    <line x1="100" y1="300" x2="1100" y2="300" stroke="#1A3A5C" stroke-width="0.6" opacity="0.08"/>
    <line x1="300" y1="30" x2="300" y2="570" stroke="#1A3A5C" stroke-width="0.4" opacity="0.06"/>
    <line x1="600" y1="30" x2="600" y2="570" stroke="#1A3A5C" stroke-width="0.4" opacity="0.06"/>
    <line x1="900" y1="30" x2="900" y2="570" stroke="#1A3A5C" stroke-width="0.4" opacity="0.06"/>
    <line x1="100" y1="150" x2="1100" y2="150" stroke="#1A3A5C" stroke-width="0.3" opacity="0.05"/>
    <line x1="100" y1="450" x2="1100" y2="450" stroke="#1A3A5C" stroke-width="0.3" opacity="0.05"/>

    <!-- North America -->
    <path d="M130 160 C130 130,170 95,210 85 C240 78,270 82,295 90 C320 100,340 115,345 135 C348 150,340 170,330 185 C320 200,305 215,290 230 C275 245,260 260,250 275 C240 290,235 305,225 320 C215 330,200 330,185 320 C170 310,155 290,145 270 C135 250,128 230,125 210 C122 190,125 175,130 160Z" fill="#1A3A5C" opacity="0.08"/>
    <!-- Alaska -->
    <path d="M100 120 C105 108,120 100,140 105 C155 108,165 120,160 135 C155 145,140 148,125 142 C110 135,100 128,100 120Z" fill="#1A3A5C" opacity="0.06"/>
    <!-- Central America -->
    <path d="M225 320 C230 315,240 312,248 315 C255 320,258 330,255 340 C252 348,245 350,238 345 C230 340,225 330,225 320Z" fill="#1A3A5C" opacity="0.07"/>

    <!-- South America -->
    <path d="M260 350 C275 340,295 338,310 345 C325 355,332 375,335 400 C337 425,332 450,322 470 C312 488,298 500,282 505 C268 508,255 500,245 488 C235 475,230 455,228 435 C226 415,228 395,235 378 C240 365,248 355,260 350Z" fill="#1A3A5C" opacity="0.08"/>

    <!-- Europe -->
    <path d="M490 100 C505 90,525 85,545 88 C565 92,580 102,588 118 C594 132,592 148,584 162 C575 175,562 182,546 184 C530 185,515 178,505 168 C495 155,488 142,486 128 C484 115,486 108,490 100Z" fill="#1A3A5C" opacity="0.08"/>
    <!-- Scandinavia -->
    <path d="M540 65 C548 58,560 55,572 60 C582 66,586 78,582 90 C578 98,568 102,558 98 C548 94,540 82,538 72Z" fill="#1A3A5C" opacity="0.06"/>
    <!-- UK/Ireland -->
    <path d="M475 110 C480 105,488 104,494 108 C498 112,498 120,494 125 C490 130,482 130,478 126 C474 122,473 116,475 110Z" fill="#1A3A5C" opacity="0.07"/>

    <!-- Africa -->
    <path d="M520 195 C540 188,560 190,578 200 C595 212,608 230,615 255 C622 280,624 308,618 335 C612 360,600 382,585 398 C570 412,552 420,535 418 C518 416,505 405,496 388 C487 370,483 348,482 325 C481 302,485 278,492 258 C500 238,508 218,520 195Z" fill="#1A3A5C" opacity="0.08"/>
    <!-- Madagascar -->
    <path d="M625 370 C630 365,638 368,640 378 C641 388,636 398,630 400 C624 400,622 392,622 385 C622 378,623 373,625 370Z" fill="#1A3A5C" opacity="0.06"/>

    <!-- Asia (Russia + Central/East Asia) -->
    <path d="M610 60 C650 52,700 50,750 55 C800 62,845 75,880 95 C910 112,930 135,940 162 C948 188,945 215,932 238 C918 258,898 268,872 272 C846 275,818 270,790 260 C762 250,735 235,712 218 C690 202,672 185,658 168 C645 150,635 132,628 115 C622 100,618 85,615 72 C612 62,612 58,610 60Z" fill="#1A3A5C" opacity="0.07"/>

    <!-- India -->
    <path d="M735 240 C748 235,762 240,772 255 C780 268,782 285,778 302 C774 318,765 330,752 335 C740 338,730 332,724 320 C718 305,716 288,718 272 C720 258,726 248,735 240Z" fill="#1A3A5C" opacity="0.07"/>

    <!-- Southeast Asia -->
    <path d="M820 265 C835 258,852 260,866 272 C878 282,885 298,882 315 C878 330,868 340,854 342 C840 344,828 336,820 324 C812 312,810 296,814 282 C816 274,818 268,820 265Z" fill="#1A3A5C" opacity="0.06"/>

    <!-- Indonesia -->
    <path d="M870 320 C885 315,900 318,912 328 C922 338,926 352,920 362 C914 370,902 372,890 368 C878 362,870 352,868 340 C866 330,868 325,870 320Z" fill="#1A3A5C" opacity="0.05"/>

    <!-- Japan -->
    <path d="M940 130 C945 122,952 120,958 125 C963 132,964 142,960 152 C956 160,950 164,944 160 C938 155,936 145,938 138Z" fill="#1A3A5C" opacity="0.06"/>

    <!-- Australia -->
    <path d="M880 385 C905 375,935 372,960 378 C985 385,1005 398,1015 418 C1022 435,1020 455,1010 470 C998 482,982 488,962 486 C942 484,924 475,910 462 C896 448,886 430,882 412 C880 398,880 390,880 385Z" fill="#1A3A5C" opacity="0.07"/>

    <!-- New Zealand -->
    <path d="M1030 458 C1035 452,1042 452,1046 458 C1050 465,1048 475,1042 482 C1036 486,1030 484,1028 478 C1026 470,1028 464,1030 458Z" fill="#1A3A5C" opacity="0.05"/>

    <!-- Greenland -->
    <path d="M345 48 C358 40,378 38,395 42 C410 48,418 60,415 75 C412 88,402 95,388 94 C375 92,362 84,355 74 C348 64,345 56,345 48Z" fill="#1A3A5C" opacity="0.06"/>

    <!-- Dot markers for key cities — Gold -->
    <circle cx="560" cy="355" r="6" fill="#C5A059" opacity="0.5"/>  <!-- Johannesburg -->
    <circle cx="560" cy="355" r="12" fill="none" stroke="#C5A059" stroke-width="1" opacity="0.25"/>

    <circle cx="486" cy="118" r="3.5" fill="#C5A059" opacity="0.4"/> <!-- London -->
    <circle cx="230" cy="180" r="3.5" fill="#C5A059" opacity="0.4"/> <!-- New York -->
    <circle cx="660" cy="210" r="3.5" fill="#C5A059" opacity="0.4"/> <!-- Dubai -->
    <circle cx="955" cy="420" r="3.5" fill="#C5A059" opacity="0.4"/> <!-- Sydney -->
    <circle cx="210" cy="115" r="3.5" fill="#C5A059" opacity="0.4"/> <!-- Toronto -->
    <circle cx="755" cy="275" r="3.5" fill="#C5A059" opacity="0.4"/> <!-- Mumbai -->

    <!-- Connection lines from Johannesburg — dashed gold -->
    <line x1="560" y1="355" x2="486" y2="118" stroke="#C5A059" stroke-width="0.8" opacity="0.18" stroke-dasharray="6 4"/>
    <line x1="560" y1="355" x2="230" y2="180" stroke="#C5A059" stroke-width="0.8" opacity="0.18" stroke-dasharray="6 4"/>
    <line x1="560" y1="355" x2="660" y2="210" stroke="#C5A059" stroke-width="0.8" opacity="0.18" stroke-dasharray="6 4"/>
    <line x1="560" y1="355" x2="955" y2="420" stroke="#C5A059" stroke-width="0.8" opacity="0.18" stroke-dasharray="6 4"/>
    <line x1="560" y1="355" x2="210" y2="115" stroke="#C5A059" stroke-width="0.8" opacity="0.18" stroke-dasharray="6 4"/>
    <line x1="560" y1="355" x2="755" y2="275" stroke="#C5A059" stroke-width="0.8" opacity="0.18" stroke-dasharray="6 4"/>
  </g>
</svg>
